{
  "accessors": [
    {
      "bufferView": 2,
      "componentType": 5126,
      "count": 1743,
      "max": [
        0.8557747006416321,
        2.6589512825012207,
        0.7702359557151794
      ],
      "min": [
        -0.8557752370834351,
        0.000653663300909102,
        -0.7702390551567078
      ],
      "type": "VEC3"
    },
    {
      "bufferView": 2,
      "byteOffset": 20916,
      "componentType": 5126,
      "count": 1743,
      "max": [
        0.9996479153633118,
        0.9999757409095764,
        1.0000003576278687
      ],
      "min": [
        -0.9996476173400879,
        -0.9999984502792358,
        -0.9999307990074158
      ],
      "type": "VEC3"
    },
    {
      "bufferView": 1,
      "componentType": 5126,
      "count": 1743,
      "max": [
        0.9918000102043152,
        -0.005998999811708927
      ],
      "min": [
        0.007899999618530273,
        -0.9902999997138977
      ],
      "type": "VEC2"
    },
    {
      "bufferView": 0,
      "componentType": 5125,
      "count": 6030,
      "type": "SCALAR"
    },
    {
      "bufferView": 2,
      "byteOffset": 41832,
      "componentType": 5126,
      "count": 1743,
      "max": [
        0.8557747006416321,
        2.6589512825012207,
        0.7702359557151794
      ],
      "min": [
        -0.8557752370834351,
        0.000653663300909102,
        -0.7702390551567078
      ],
      "type": "VEC3"
    },
    {
      "bufferView": 2,
      "byteOffset": 62748,
      "componentType": 5126,
      "count": 1743,
      "max": [
        0.9996479153633118,
        0.9999757409095764,
        1.0000003576278687
      ],
      "min": [
        -0.9996476173400879,
        -0.9999984502792358,
        -0.9999307990074158
      ],
      "type": "VEC3"
    },
    {
      "bufferView": 1,
      "byteOffset": 13944,
      "componentType": 5126,
      "count": 1743,
      "max": [
        0.9918000102043152,
        -0.005998999811708927
      ],
      "min": [
        0.007899999618530273,
        -0.9902999997138977
      ],
      "type": "VEC2"
    },
    {
      "bufferView": 0,
      "byteOffset": 24120,
      "componentType": 5125,
      "count": 6030,
      "type": "SCALAR"
    }
  ],
  "asset": {
    "extras": {
      "author": "ivan.vladimirov08 (https://sketchfab.com/ivan.vladimirov08)",
      "license": "CC-BY-4.0 (http://creativecommons.org/licenses/by/4.0/)",
      "source": "https://sketchfab.com/3d-models/phineas-c13cd7699e094b1ba8906ca9b1a3f89d",
      "title": "Phineas"
    },
    "generator": "Sketchfab-12.68.0",
    "version": "2.0"
  },
  "bufferViews": [
    {
      "buffer": 0,
      "byteLength": 48240,
      "name": "floatBufferViews",
      "target": 34963
    },
    {
      "buffer": 0,
      "byteLength": 27888,
      "byteOffset": 48240,
      "byteStride": 8,
      "name": "floatBufferViews",
      "target": 34962
    },
    {
      "buffer": 0,
      "byteLength": 83664,
      "byteOffset": 76128,
      "byteStride": 12,
      "name": "floatBufferViews",
      "target": 34962
    }
  ],
  "buffers": [
    {
      "byteLength": 159792,
      "uri": "scene.bin"
    }
  ],
  "images": [
    {
      "uri": "textures/Phineas_D_png_baseColor.png"
    }
  ],
  "materials": [
    {
      "doubleSided": true,
      "name": "Phineas_D_png",
      "pbrMetallicRoughness": {
        "baseColorTexture": {
          "index": 0
        },
        "metallicFactor": 0.0
      }
    }
  ],
  "meshes": [
    {
      "name": "Object_0",
      "primitives": [
        {
          "attributes": {
            "NORMAL": 1,
            "POSITION": 0,
            "TEXCOORD_0": 2
          },
          "indices": 3,
          "material": 0,
          "mode": 4
        }
      ]
    },
    {
      "name": "Object_1",
      "primitives": [
        {
          "attributes": {
            "NORMAL": 5,
            "POSITION": 4,
            "TEXCOORD_0": 6
          },
          "indices": 7,
          "material": 0,
          "mode": 4
        }
      ]
    }
  ],
  "nodes": [
    {
      "children": [
        1
      ],
      "matrix": [
        1.0,
        0.0,
        0.0,
        0.0,
        0.0,
        2.220446049250313e-16,
        -1.0,
        0.0,
        0.0,
        1.0,
        2.220446049250313e-16,
        0.0,
        0.0,
        0.0,
        0.0,
        1.0
      ],
      "name": "Sketchfab_model"
    },
    {
      "children": [
        2
      ],
      "matrix": [
        1.0,
        0.0,
        0.0,
        0.0,
        0.0,
        -4.371139006309477e-08,
        0.999999999999999,
        0.0,
        0.0,
        -0.999999999999999,
        -4.371139006309477e-08,
        0.0,
        0.0,
        0.0,
        0.0,
        1.0
      ],
      "name": "Collada visual scene group"
    },
    {
      "children": [
        3,
        4
      ],
      "name": "Object_2"
    },
    {
      "mesh": 0,
      "name": "Object_3"
    },
    {
      "mesh": 1,
      "name": "Object_4"
    }
  ],
  "samplers": [
    {
      "magFilter": 9729,
      "minFilter": 9987,
      "wrapS": 10497,
      "wrapT": 10497
    }
  ],
  "scene": 0,
  "scenes": [
    {
      "name": "Sketchfab_Scene",
      "nodes": [
        0
      ]
    }
  ],
  "textures": [
    {
      "sampler": 0,
      "source": 0
    }
  ]
}
